<svg id="visual" viewBox="0 0 1920 1080" width="1920" height="1080" xmlns="http://www.w3.org/2000/svg" xmlns:xlink="http://www.w3.org/1999/xlink" version="1.1"><rect x="0" y="0" width="1920" height="1080" fill="#6cbf4d"></rect><defs><linearGradient id="grad1_0" x1="43.8%" y1="0%" x2="100%" y2="100%"><stop offset="14.444444444444446%" stop-color="#ffffff" stop-opacity="1"></stop><stop offset="85.55555555555554%" stop-color="#ffffff" stop-opacity="1"></stop></linearGradient></defs><defs><linearGradient id="grad1_1" x1="43.8%" y1="0%" x2="100%" y2="100%"><stop offset="14.444444444444446%" stop-color="#ffffff" stop-opacity="1"></stop><stop offset="85.55555555555554%" stop-color="#d1eac3" stop-opacity="1"></stop></linearGradient></defs><defs><linearGradient id="grad1_2" x1="43.8%" y1="0%" x2="100%" y2="100%"><stop offset="14.444444444444446%" stop-color="#a1d588" stop-opacity="1"></stop><stop offset="85.55555555555554%" stop-color="#d1eac3" stop-opacity="1"></stop></linearGradient></defs><defs><linearGradient id="grad1_3" x1="43.8%" y1="0%" x2="100%" y2="100%"><stop offset="14.444444444444446%" stop-color="#a1d588" stop-opacity="1"></stop><stop offset="85.55555555555554%" stop-color="#6cbf4d" stop-opacity="1"></stop></linearGradient></defs><defs><linearGradient id="grad2_0" x1="0%" y1="0%" x2="56.3%" y2="100%"><stop offset="14.444444444444446%" stop-color="#ffffff" stop-opacity="1"></stop><stop offset="85.55555555555554%" stop-color="#ffffff" stop-opacity="1"></stop></linearGradient></defs><defs><linearGradient id="grad2_1" x1="0%" y1="0%" x2="56.3%" y2="100%"><stop offset="14.444444444444446%" stop-color="#d1eac3" stop-opacity="1"></stop><stop offset="85.55555555555554%" stop-color="#ffffff" stop-opacity="1"></stop></linearGradient></defs><defs><linearGradient id="grad2_2" x1="0%" y1="0%" x2="56.3%" y2="100%"><stop offset="14.444444444444446%" stop-color="#d1eac3" stop-opacity="1"></stop><stop offset="85.55555555555554%" stop-color="#a1d588" stop-opacity="1"></stop></linearGradient></defs><defs><linearGradient id="grad2_3" x1="0%" y1="0%" x2="56.3%" y2="100%"><stop offset="14.444444444444446%" stop-color="#6cbf4d" stop-opacity="1"></stop><stop offset="85.55555555555554%" stop-color="#a1d588" stop-opacity="1"></stop></linearGradient></defs><g transform="translate(1920, 0)"><path d="M0 972C-182.7 953.9 -365.3 935.8 -486 841.8C-606.7 747.8 -665.4 577.9 -736.1 425C-806.8 272.1 -889.4 136 -972 0L0 0Z" fill="#87ca6b"></path><path d="M0 729C-137 715.4 -274 701.8 -364.5 631.3C-455 560.8 -499.1 433.5 -552.1 318.8C-605.1 204 -667 102 -729 0L0 0Z" fill="#b9e0a6"></path><path d="M0 486C-91.3 476.9 -182.7 467.9 -243 420.9C-303.3 373.9 -332.7 289 -368.1 212.5C-403.4 136 -444.7 68 -486 0L0 0Z" fill="#e8f5e1"></path><path d="M0 243C-45.7 238.5 -91.3 233.9 -121.5 210.4C-151.7 186.9 -166.4 144.5 -184 106.3C-201.7 68 -222.3 34 -243 0L0 0Z" fill="#ffffff"></path></g><g transform="translate(0, 1080)"><path d="M0 -972C191.1 -958.7 382.2 -945.5 486 -841.8C589.8 -738.1 606.4 -543.9 672.9 -388.5C739.4 -233.1 855.7 -116.6 972 0L0 0Z" fill="#87ca6b"></path><path d="M0 -729C143.3 -719.1 286.6 -709.1 364.5 -631.3C442.4 -553.5 454.8 -407.9 504.7 -291.4C554.5 -174.8 641.8 -87.4 729 0L0 0Z" fill="#b9e0a6"></path><path d="M0 -486C95.5 -479.4 191.1 -472.7 243 -420.9C294.9 -369 303.2 -271.9 336.5 -194.3C369.7 -116.6 427.8 -58.3 486 0L0 0Z" fill="#e8f5e1"></path><path d="M0 -243C47.8 -239.7 95.5 -236.4 121.5 -210.4C147.5 -184.5 151.6 -136 168.2 -97.1C184.8 -58.3 213.9 -29.1 243 0L0 0Z" fill="#ffffff"></path></g></svg>